<mxfile host="app.diagrams.net" modified="2024-04-28T13:58:22.025Z" agent="Mozilla/5.0 (X11; Ubuntu; Linux x86_64; rv:125.0) Gecko/20100101 Firefox/125.0" etag="s2-i1xksQ0VwCQjM0MXc" version="24.2.7" type="device">
  <diagram id="KdCrRrIsqHHysakkYIEn" name="Page-1">
    <mxGraphModel dx="2765" dy="1096" grid="1" gridSize="10" guides="1" tooltips="1" connect="1" arrows="1" fold="1" page="1" pageScale="1" pageWidth="827" pageHeight="1169" math="0" shadow="0">
      <root>
        <mxCell id="0" />
        <mxCell id="1" parent="0" />
        <mxCell id="ht_Mzunb_tVLJNK0aL3s-10" value="STATE_SCAN" style="swimlane;fontStyle=0;childLayout=stackLayout;horizontal=1;startSize=26;horizontalStack=0;resizeParent=1;resizeParentMax=0;resizeLast=0;collapsible=1;marginBottom=0;align=center;fontSize=14;" parent="1" vertex="1">
          <mxGeometry x="290" y="310" width="190" height="56" as="geometry" />
        </mxCell>
        <mxCell id="ht_Mzunb_tVLJNK0aL3s-11" value="/* initialize array of anchors */" style="text;strokeColor=none;fillColor=none;spacingLeft=4;spacingRight=4;overflow=hidden;rotatable=0;points=[[0,0.5],[1,0.5]];portConstraint=eastwest;fontSize=12;" parent="ht_Mzunb_tVLJNK0aL3s-10" vertex="1">
          <mxGeometry y="26" width="190" height="30" as="geometry" />
        </mxCell>
        <mxCell id="ht_Mzunb_tVLJNK0aL3s-14" value="STATE_PONG" style="swimlane;fontStyle=0;childLayout=stackLayout;horizontal=1;startSize=26;horizontalStack=0;resizeParent=1;resizeParentMax=0;resizeLast=0;collapsible=1;marginBottom=0;align=center;fontSize=14;" parent="1" vertex="1">
          <mxGeometry x="667" y="280" width="273" height="110" as="geometry" />
        </mxCell>
        <mxCell id="ht_Mzunb_tVLJNK0aL3s-15" value="/* &#xa;* wait for PONG (PONG_TIMEOUT_MS expires)&#xa;* establish the connection with an anchor &#xa;* store the anchor to the array of anchors&#xa;*/" style="text;strokeColor=none;fillColor=none;spacingLeft=4;spacingRight=4;overflow=hidden;rotatable=0;points=[[0,0.5],[1,0.5]];portConstraint=eastwest;fontSize=12;" parent="ht_Mzunb_tVLJNK0aL3s-14" vertex="1">
          <mxGeometry y="26" width="273" height="84" as="geometry" />
        </mxCell>
        <mxCell id="ht_Mzunb_tVLJNK0aL3s-22" value="" style="endArrow=classic;html=1;rounded=0;strokeColor=default;jumpStyle=none;exitX=0.999;exitY=0.529;exitDx=0;exitDy=0;entryX=1.002;entryY=0.169;entryDx=0;entryDy=0;entryPerimeter=0;exitPerimeter=0;" parent="ht_Mzunb_tVLJNK0aL3s-14" source="ht_Mzunb_tVLJNK0aL3s-15" target="ht_Mzunb_tVLJNK0aL3s-15" edge="1">
          <mxGeometry width="50" height="50" relative="1" as="geometry">
            <mxPoint x="242" y="70.44055944055958" as="sourcePoint" />
            <mxPoint x="245" y="40" as="targetPoint" />
            <Array as="points">
              <mxPoint x="313" y="70" />
              <mxPoint x="313" y="40" />
            </Array>
          </mxGeometry>
        </mxCell>
        <mxCell id="ht_Mzunb_tVLJNK0aL3s-20" value="" style="endArrow=classic;html=1;rounded=0;strokeColor=default;jumpStyle=none;exitX=1;exitY=0.5;exitDx=0;exitDy=0;entryX=0.004;entryY=0.105;entryDx=0;entryDy=0;entryPerimeter=0;" parent="1" source="ht_Mzunb_tVLJNK0aL3s-10" edge="1">
          <mxGeometry width="50" height="50" relative="1" as="geometry">
            <mxPoint x="550" y="340" as="sourcePoint" />
            <mxPoint x="667.6400000000001" y="339.14999999999986" as="targetPoint" />
          </mxGeometry>
        </mxCell>
        <mxCell id="ht_Mzunb_tVLJNK0aL3s-21" value="transmitPing()" style="edgeLabel;html=1;align=center;verticalAlign=middle;resizable=0;points=[];" parent="ht_Mzunb_tVLJNK0aL3s-20" vertex="1" connectable="0">
          <mxGeometry x="-0.0572" y="1" relative="1" as="geometry">
            <mxPoint as="offset" />
          </mxGeometry>
        </mxCell>
        <mxCell id="ht_Mzunb_tVLJNK0aL3s-23" value="wait for other connections" style="text;strokeColor=none;fillColor=none;spacingLeft=4;spacingRight=4;overflow=hidden;rotatable=0;points=[[0,0.5],[1,0.5]];portConstraint=eastwest;fontSize=12;" parent="1" vertex="1">
          <mxGeometry x="980" y="320" width="168" height="30" as="geometry" />
        </mxCell>
        <mxCell id="ht_Mzunb_tVLJNK0aL3s-25" value="" style="endArrow=classic;html=1;rounded=0;strokeColor=default;jumpStyle=none;exitX=0.447;exitY=-0.024;exitDx=0;exitDy=0;exitPerimeter=0;" parent="1" source="ht_Mzunb_tVLJNK0aL3s-14" edge="1">
          <mxGeometry width="50" height="50" relative="1" as="geometry">
            <mxPoint x="729" y="230.44055944055958" as="sourcePoint" />
            <mxPoint x="385" y="310" as="targetPoint" />
            <Array as="points">
              <mxPoint x="790" y="230" />
              <mxPoint x="385" y="230" />
            </Array>
          </mxGeometry>
        </mxCell>
        <mxCell id="ht_Mzunb_tVLJNK0aL3s-26" value="PONG_TIMEOUT_MS expires&lt;br&gt;&lt;font style=&quot;font-size: 10px;&quot;&gt;# of anchors &amp;lt; 2&lt;br&gt;&lt;/font&gt;" style="edgeLabel;html=1;align=center;verticalAlign=middle;resizable=0;points=[];" parent="1" vertex="1" connectable="0">
          <mxGeometry x="590.0007680252164" y="230.00466019562575" as="geometry">
            <mxPoint x="6" as="offset" />
          </mxGeometry>
        </mxCell>
        <mxCell id="ht_Mzunb_tVLJNK0aL3s-27" value="" style="endArrow=classic;html=1;rounded=0;strokeColor=default;jumpStyle=none;entryX=0.484;entryY=-0.047;entryDx=0;entryDy=0;entryPerimeter=0;" parent="1" target="ht_Mzunb_tVLJNK0aL3s-29" edge="1">
          <mxGeometry width="50" height="50" relative="1" as="geometry">
            <mxPoint x="790" y="392" as="sourcePoint" />
            <mxPoint x="790" y="480" as="targetPoint" />
          </mxGeometry>
        </mxCell>
        <mxCell id="ht_Mzunb_tVLJNK0aL3s-28" value="PONG_TIMEOUT_MS expires&lt;br&gt;&lt;font style=&quot;font-size: 10px;&quot;&gt;# of anchors = 2&lt;br&gt;&lt;/font&gt;" style="edgeLabel;html=1;align=center;verticalAlign=middle;resizable=0;points=[];" parent="1" vertex="1" connectable="0">
          <mxGeometry x="871.5007680252164" y="433.54466019562574" as="geometry">
            <mxPoint x="3" y="-8" as="offset" />
          </mxGeometry>
        </mxCell>
        <mxCell id="ht_Mzunb_tVLJNK0aL3s-29" value="STATE_ROUNDROBIN" style="swimlane;fontStyle=0;childLayout=stackLayout;horizontal=1;startSize=26;horizontalStack=0;resizeParent=1;resizeParentMax=0;resizeLast=0;collapsible=1;marginBottom=0;align=center;fontSize=14;" parent="1" vertex="1">
          <mxGeometry x="640" y="490" width="310" height="80" as="geometry" />
        </mxCell>
        <mxCell id="ht_Mzunb_tVLJNK0aL3s-30" value="/* &#xa;* Iteratively send POLL to all detected anchors&#xa;*/" style="text;strokeColor=none;fillColor=none;spacingLeft=4;spacingRight=4;overflow=hidden;rotatable=0;points=[[0,0.5],[1,0.5]];portConstraint=eastwest;fontSize=12;" parent="ht_Mzunb_tVLJNK0aL3s-29" vertex="1">
          <mxGeometry y="26" width="310" height="54" as="geometry" />
        </mxCell>
        <mxCell id="ht_Mzunb_tVLJNK0aL3s-32" value="STATE_POLLACK" style="swimlane;fontStyle=0;childLayout=stackLayout;horizontal=1;startSize=26;horizontalStack=0;resizeParent=1;resizeParentMax=0;resizeLast=0;collapsible=1;marginBottom=0;align=center;fontSize=14;" parent="1" vertex="1">
          <mxGeometry x="640" y="650" width="243" height="90" as="geometry" />
        </mxCell>
        <mxCell id="ht_Mzunb_tVLJNK0aL3s-33" value="/*&#xa;* if destination and source match&#xa;*  record pollack received time&#xa;*/" style="text;strokeColor=none;fillColor=none;spacingLeft=4;spacingRight=4;overflow=hidden;rotatable=0;points=[[0,0.5],[1,0.5]];portConstraint=eastwest;fontSize=12;" parent="ht_Mzunb_tVLJNK0aL3s-32" vertex="1">
          <mxGeometry y="26" width="243" height="64" as="geometry" />
        </mxCell>
        <mxCell id="ht_Mzunb_tVLJNK0aL3s-35" value="STATE_RANGEREPORT" style="swimlane;fontStyle=0;childLayout=stackLayout;horizontal=1;startSize=26;horizontalStack=0;resizeParent=1;resizeParentMax=0;resizeLast=0;collapsible=1;marginBottom=0;align=center;fontSize=14;" parent="1" vertex="1">
          <mxGeometry x="285" y="640" width="200" height="110" as="geometry" />
        </mxCell>
        <mxCell id="ht_Mzunb_tVLJNK0aL3s-36" value="/*&#xa;* if destination and source match&#xa;*  calculate the distance from the &#xa;*  collected timestamps&#xa;*/" style="text;strokeColor=none;fillColor=none;spacingLeft=4;spacingRight=4;overflow=hidden;rotatable=0;points=[[0,0.5],[1,0.5]];portConstraint=eastwest;fontSize=12;" parent="ht_Mzunb_tVLJNK0aL3s-35" vertex="1">
          <mxGeometry y="26" width="200" height="84" as="geometry" />
        </mxCell>
        <mxCell id="ht_Mzunb_tVLJNK0aL3s-37" value="" style="endArrow=classic;html=1;rounded=0;strokeColor=default;jumpStyle=none;exitX=1;exitY=0.5;exitDx=0;exitDy=0;entryX=0.999;entryY=0.524;entryDx=0;entryDy=0;entryPerimeter=0;" parent="1" source="ht_Mzunb_tVLJNK0aL3s-33" target="ht_Mzunb_tVLJNK0aL3s-30" edge="1">
          <mxGeometry width="50" height="50" relative="1" as="geometry">
            <mxPoint x="883" y="740.4405594405596" as="sourcePoint" />
            <mxPoint x="886" y="710" as="targetPoint" />
            <Array as="points">
              <mxPoint x="1000" y="708" />
              <mxPoint x="1000" y="544" />
            </Array>
          </mxGeometry>
        </mxCell>
        <mxCell id="ht_Mzunb_tVLJNK0aL3s-39" value="" style="endArrow=classic;html=1;rounded=0;strokeColor=default;jumpStyle=none;exitX=0.39;exitY=0.997;exitDx=0;exitDy=0;exitPerimeter=0;entryX=0.5;entryY=0;entryDx=0;entryDy=0;" parent="1" source="ht_Mzunb_tVLJNK0aL3s-30" edge="1" target="ht_Mzunb_tVLJNK0aL3s-32">
          <mxGeometry width="50" height="50" relative="1" as="geometry">
            <mxPoint x="761" y="580" as="sourcePoint" />
            <mxPoint x="760" y="670" as="targetPoint" />
          </mxGeometry>
        </mxCell>
        <mxCell id="ht_Mzunb_tVLJNK0aL3s-42" value="&lt;font style=&quot;font-size: 11px;&quot;&gt;idx_anchor &amp;lt; num_anchors&lt;br&gt;transmitPoll()&lt;br&gt;&lt;font style=&quot;font-size: 11px;&quot;&gt;record poll sent time&lt;/font&gt;&lt;/font&gt;" style="edgeLabel;html=1;align=center;verticalAlign=middle;resizable=0;points=[];" parent="1" vertex="1" connectable="0">
          <mxGeometry x="761.5038530020233" y="610.0016118025146" as="geometry" />
        </mxCell>
        <mxCell id="ht_Mzunb_tVLJNK0aL3s-43" value="" style="endArrow=classic;html=1;rounded=0;strokeColor=default;jumpStyle=none;exitX=0;exitY=0.5;exitDx=0;exitDy=0;entryX=1;entryY=0.5;entryDx=0;entryDy=0;" parent="1" source="ht_Mzunb_tVLJNK0aL3s-33" target="ht_Mzunb_tVLJNK0aL3s-36" edge="1">
          <mxGeometry width="50" height="50" relative="1" as="geometry">
            <mxPoint x="340.24" y="805.4405594405596" as="sourcePoint" />
            <mxPoint x="360" y="738" as="targetPoint" />
            <Array as="points" />
          </mxGeometry>
        </mxCell>
        <mxCell id="ht_Mzunb_tVLJNK0aL3s-44" value="transmitRange()&lt;br&gt;&lt;font style=&quot;font-size: 10px;&quot;&gt;record range sent time&lt;/font&gt;" style="edgeLabel;html=1;align=center;verticalAlign=middle;resizable=0;points=[];" parent="ht_Mzunb_tVLJNK0aL3s-43" vertex="1" connectable="0">
          <mxGeometry x="-0.0227" relative="1" as="geometry">
            <mxPoint x="-3" as="offset" />
          </mxGeometry>
        </mxCell>
        <mxCell id="ht_Mzunb_tVLJNK0aL3s-45" value="" style="endArrow=classic;html=1;rounded=0;strokeColor=default;jumpStyle=none;exitX=1.003;exitY=0.147;exitDx=0;exitDy=0;exitPerimeter=0;entryX=1.01;entryY=0.361;entryDx=0;entryDy=0;entryPerimeter=0;" parent="1" target="ZB6a2oAtnxAXg-gOM-Wv-3" edge="1">
          <mxGeometry width="50" height="50" relative="1" as="geometry">
            <mxPoint x="640.0689999999998" y="534.5880000000002" as="sourcePoint" />
            <mxPoint x="400" y="535" as="targetPoint" />
          </mxGeometry>
        </mxCell>
        <mxCell id="ht_Mzunb_tVLJNK0aL3s-47" value="all anchors responded" style="edgeLabel;html=1;align=center;verticalAlign=middle;resizable=0;points=[];" parent="ht_Mzunb_tVLJNK0aL3s-45" vertex="1" connectable="0">
          <mxGeometry x="0.0342" relative="1" as="geometry">
            <mxPoint x="6" as="offset" />
          </mxGeometry>
        </mxCell>
        <mxCell id="ht_Mzunb_tVLJNK0aL3s-46" value="" style="endArrow=classic;html=1;rounded=0;strokeColor=default;jumpStyle=none;exitX=1;exitY=0.25;exitDx=0;exitDy=0;entryX=0;entryY=0.5;entryDx=0;entryDy=0;" parent="1" source="ht_Mzunb_tVLJNK0aL3s-35" edge="1" target="ht_Mzunb_tVLJNK0aL3s-30">
          <mxGeometry width="50" height="50" relative="1" as="geometry">
            <mxPoint x="402.99999999999983" y="545.21" as="sourcePoint" />
            <mxPoint x="636.5970000000001" y="544.79" as="targetPoint" />
          </mxGeometry>
        </mxCell>
        <mxCell id="ht_Mzunb_tVLJNK0aL3s-48" value="RANGE_REPORT_TIMEOUT_MS&lt;br&gt;expires&lt;br&gt;&lt;font style=&quot;font-size: 10px;&quot;&gt;(idx_anchor++)&lt;/font&gt;" style="edgeLabel;html=1;align=center;verticalAlign=middle;resizable=0;points=[];" parent="ht_Mzunb_tVLJNK0aL3s-46" vertex="1" connectable="0">
          <mxGeometry x="0.269" y="-3" relative="1" as="geometry">
            <mxPoint x="-37" y="17" as="offset" />
          </mxGeometry>
        </mxCell>
        <mxCell id="ht_Mzunb_tVLJNK0aL3s-49" value="" style="endArrow=classic;html=1;rounded=0;strokeColor=default;jumpStyle=none;exitX=0.154;exitY=-0.009;exitDx=0;exitDy=0;exitPerimeter=0;entryX=0.785;entryY=1.067;entryDx=0;entryDy=0;entryPerimeter=0;" parent="1" source="ht_Mzunb_tVLJNK0aL3s-29" edge="1" target="ht_Mzunb_tVLJNK0aL3s-11">
          <mxGeometry width="50" height="50" relative="1" as="geometry">
            <mxPoint x="379.9989999999998" y="429.99799999999993" as="sourcePoint" />
            <mxPoint x="360" y="366" as="targetPoint" />
            <Array as="points">
              <mxPoint x="688" y="440" />
              <mxPoint x="440" y="440" />
            </Array>
          </mxGeometry>
        </mxCell>
        <mxCell id="ht_Mzunb_tVLJNK0aL3s-50" value="&lt;font style=&quot;font-size: 11px;&quot;&gt;not all anchors responded&lt;/font&gt;" style="edgeLabel;html=1;align=center;verticalAlign=middle;resizable=0;points=[];" parent="ht_Mzunb_tVLJNK0aL3s-49" vertex="1" connectable="0">
          <mxGeometry x="0.0342" relative="1" as="geometry">
            <mxPoint as="offset" />
          </mxGeometry>
        </mxCell>
        <mxCell id="ht_Mzunb_tVLJNK0aL3s-53" value="&lt;span style=&quot;font-size: 10px; background-color: rgb(248, 249, 250);&quot;&gt;POLLACK_TIMEOUT_MS&amp;nbsp;&lt;/span&gt;expires&lt;br&gt;&lt;font style=&quot;font-size: 10px;&quot;&gt;(idx_anchor++)&lt;/font&gt;" style="edgeLabel;html=1;align=center;verticalAlign=middle;resizable=0;points=[];" parent="1" vertex="1" connectable="0">
          <mxGeometry x="999.9951546776897" y="640.0038962733017" as="geometry" />
        </mxCell>
        <mxCell id="ZB6a2oAtnxAXg-gOM-Wv-20" style="edgeStyle=orthogonalEdgeStyle;rounded=0;orthogonalLoop=1;jettySize=auto;html=1;entryX=0.421;entryY=0.991;entryDx=0;entryDy=0;entryPerimeter=0;exitX=0.614;exitY=0.002;exitDx=0;exitDy=0;exitPerimeter=0;" edge="1" parent="1" source="ZB6a2oAtnxAXg-gOM-Wv-2" target="ht_Mzunb_tVLJNK0aL3s-11">
          <mxGeometry relative="1" as="geometry">
            <mxPoint x="362" y="369" as="targetPoint" />
            <mxPoint x="360" y="489" as="sourcePoint" />
          </mxGeometry>
        </mxCell>
        <mxCell id="ZB6a2oAtnxAXg-gOM-Wv-21" value="server is not available" style="edgeLabel;html=1;align=center;verticalAlign=middle;resizable=0;points=[];" vertex="1" connectable="0" parent="ZB6a2oAtnxAXg-gOM-Wv-20">
          <mxGeometry x="0.126" y="1" relative="1" as="geometry">
            <mxPoint as="offset" />
          </mxGeometry>
        </mxCell>
        <mxCell id="ZB6a2oAtnxAXg-gOM-Wv-2" value="STATE_SEND_REQUEST_TO_SERVER" style="swimlane;fontStyle=0;childLayout=stackLayout;horizontal=1;startSize=26;horizontalStack=0;resizeParent=1;resizeParentMax=0;resizeLast=0;collapsible=1;marginBottom=0;align=center;fontSize=14;" vertex="1" parent="1">
          <mxGeometry x="210" y="490" width="260" height="80" as="geometry" />
        </mxCell>
        <mxCell id="ZB6a2oAtnxAXg-gOM-Wv-3" value="/**/" style="text;strokeColor=none;fillColor=none;spacingLeft=4;spacingRight=4;overflow=hidden;rotatable=0;points=[[0,0.5],[1,0.5]];portConstraint=eastwest;fontSize=12;" vertex="1" parent="ZB6a2oAtnxAXg-gOM-Wv-2">
          <mxGeometry y="26" width="260" height="54" as="geometry" />
        </mxCell>
        <mxCell id="ZB6a2oAtnxAXg-gOM-Wv-6" value="STATE_SEND_DISTANCE_TO_SERVER" style="swimlane;fontStyle=0;childLayout=stackLayout;horizontal=1;startSize=26;horizontalStack=0;resizeParent=1;resizeParentMax=0;resizeLast=0;collapsible=1;marginBottom=0;align=center;fontSize=14;" vertex="1" parent="1">
          <mxGeometry x="-210" y="301" width="270" height="110" as="geometry" />
        </mxCell>
        <mxCell id="ZB6a2oAtnxAXg-gOM-Wv-7" value="/*&#xa;* send data&#xa;* wait 30 sec for a response&#xa;* read ack&#xa;*/" style="text;strokeColor=none;fillColor=none;spacingLeft=4;spacingRight=4;overflow=hidden;rotatable=0;points=[[0,0.5],[1,0.5]];portConstraint=eastwest;fontSize=12;" vertex="1" parent="ZB6a2oAtnxAXg-gOM-Wv-6">
          <mxGeometry y="26" width="270" height="84" as="geometry" />
        </mxCell>
        <mxCell id="ZB6a2oAtnxAXg-gOM-Wv-9" value="STATE_REQUEST_ACK_FROM_SERVER" style="swimlane;fontStyle=0;childLayout=stackLayout;horizontal=1;startSize=26;horizontalStack=0;resizeParent=1;resizeParentMax=0;resizeLast=0;collapsible=1;marginBottom=0;align=center;fontSize=14;" vertex="1" parent="1">
          <mxGeometry x="-240" y="485" width="270" height="90" as="geometry" />
        </mxCell>
        <mxCell id="ZB6a2oAtnxAXg-gOM-Wv-10" value="/*&#xa;* wait 30 sec for a response&#xa;* read ack&#xa;*/" style="text;strokeColor=none;fillColor=none;spacingLeft=4;spacingRight=4;overflow=hidden;rotatable=0;points=[[0,0.5],[1,0.5]];portConstraint=eastwest;fontSize=12;" vertex="1" parent="ZB6a2oAtnxAXg-gOM-Wv-9">
          <mxGeometry y="26" width="270" height="64" as="geometry" />
        </mxCell>
        <mxCell id="ZB6a2oAtnxAXg-gOM-Wv-11" style="edgeStyle=orthogonalEdgeStyle;rounded=0;orthogonalLoop=1;jettySize=auto;html=1;exitX=0.997;exitY=0.206;exitDx=0;exitDy=0;entryX=0;entryY=0.294;entryDx=0;entryDy=0;entryPerimeter=0;exitPerimeter=0;" edge="1" parent="1" source="ZB6a2oAtnxAXg-gOM-Wv-7" target="ht_Mzunb_tVLJNK0aL3s-11">
          <mxGeometry relative="1" as="geometry" />
        </mxCell>
        <mxCell id="ZB6a2oAtnxAXg-gOM-Wv-12" style="edgeStyle=orthogonalEdgeStyle;rounded=0;orthogonalLoop=1;jettySize=auto;html=1;exitX=0.52;exitY=0.001;exitDx=0;exitDy=0;exitPerimeter=0;" edge="1" parent="1" source="ZB6a2oAtnxAXg-gOM-Wv-9">
          <mxGeometry relative="1" as="geometry">
            <mxPoint x="-190" y="485" as="sourcePoint" />
            <mxPoint x="-100" y="410" as="targetPoint" />
            <Array as="points" />
          </mxGeometry>
        </mxCell>
        <mxCell id="ZB6a2oAtnxAXg-gOM-Wv-18" value="server is available" style="edgeLabel;html=1;align=center;verticalAlign=middle;resizable=0;points=[];" vertex="1" connectable="0" parent="ZB6a2oAtnxAXg-gOM-Wv-12">
          <mxGeometry x="-0.0376" y="-1" relative="1" as="geometry">
            <mxPoint y="1" as="offset" />
          </mxGeometry>
        </mxCell>
        <mxCell id="ZB6a2oAtnxAXg-gOM-Wv-13" style="edgeStyle=orthogonalEdgeStyle;rounded=0;orthogonalLoop=1;jettySize=auto;html=1;exitX=0;exitY=0.5;exitDx=0;exitDy=0;entryX=1;entryY=0.5;entryDx=0;entryDy=0;" edge="1" parent="1" source="ZB6a2oAtnxAXg-gOM-Wv-3" target="ZB6a2oAtnxAXg-gOM-Wv-10">
          <mxGeometry relative="1" as="geometry" />
        </mxCell>
        <mxCell id="ZB6a2oAtnxAXg-gOM-Wv-19" value="&lt;div&gt;server is available&lt;/div&gt;&lt;div&gt;request distance transmission&lt;/div&gt;" style="edgeLabel;html=1;align=center;verticalAlign=middle;resizable=0;points=[];" vertex="1" connectable="0" parent="ZB6a2oAtnxAXg-gOM-Wv-13">
          <mxGeometry x="0.0367" y="-2" relative="1" as="geometry">
            <mxPoint x="3" y="2" as="offset" />
          </mxGeometry>
        </mxCell>
        <mxCell id="ZB6a2oAtnxAXg-gOM-Wv-16" value="" style="endArrow=classic;html=1;rounded=0;strokeColor=default;jumpStyle=none;entryX=-0.015;entryY=0.852;entryDx=0;entryDy=0;entryPerimeter=0;exitX=1.015;exitY=0.321;exitDx=0;exitDy=0;exitPerimeter=0;" edge="1" parent="1" source="ZB6a2oAtnxAXg-gOM-Wv-9" target="ht_Mzunb_tVLJNK0aL3s-11">
          <mxGeometry width="50" height="50" relative="1" as="geometry">
            <mxPoint x="-20" y="520" as="sourcePoint" />
            <mxPoint x="280" y="366" as="targetPoint" />
          </mxGeometry>
        </mxCell>
        <mxCell id="ZB6a2oAtnxAXg-gOM-Wv-17" value="&lt;div&gt;server is not available /&amp;nbsp;&lt;/div&gt;&lt;div&gt;server is busy with other communications&amp;nbsp; &lt;/div&gt;" style="edgeLabel;html=1;align=center;verticalAlign=middle;resizable=0;points=[];" vertex="1" connectable="0" parent="ZB6a2oAtnxAXg-gOM-Wv-16">
          <mxGeometry x="0.269" y="-3" relative="1" as="geometry">
            <mxPoint x="-37" y="17" as="offset" />
          </mxGeometry>
        </mxCell>
        <mxCell id="ZB6a2oAtnxAXg-gOM-Wv-24" value="" style="endArrow=classic;html=1;rounded=0;strokeColor=default;jumpStyle=none;" edge="1" parent="1">
          <mxGeometry width="50" height="50" relative="1" as="geometry">
            <mxPoint x="-100" y="301" as="sourcePoint" />
            <mxPoint x="-60" y="300" as="targetPoint" />
            <Array as="points">
              <mxPoint x="-100" y="260" />
              <mxPoint x="-60" y="260" />
            </Array>
          </mxGeometry>
        </mxCell>
        <mxCell id="ZB6a2oAtnxAXg-gOM-Wv-25" value="SERVER_TIMEOUT_MS expires&#xa;1 time loop&#xa;" style="text;strokeColor=none;fillColor=none;spacingLeft=4;spacingRight=4;overflow=hidden;rotatable=0;points=[[0,0.5],[1,0.5]];portConstraint=eastwest;fontSize=12;align=center;" vertex="1" parent="1">
          <mxGeometry x="-175" y="220" width="200" height="30" as="geometry" />
        </mxCell>
      </root>
    </mxGraphModel>
  </diagram>
</mxfile>
